<?xml version="1.0" encoding="UTF-8" standalone="no"?>
<!DOCTYPE svg PUBLIC "-//W3C//DTD SVG 1.1//EN" "http://www.w3.org/Graphics/SVG/1.1/DTD/svg11.dtd">
<svg width="100%" height="100%" viewBox="0 0 2481 2481" version="1.1" xmlns="http://www.w3.org/2000/svg" xmlns:xlink="http://www.w3.org/1999/xlink" xml:space="preserve" xmlns:serif="http://www.serif.com/" style="fill-rule:evenodd;clip-rule:evenodd;stroke-linecap:round;stroke-linejoin:round;stroke-miterlimit:1.5;">
    <g transform="matrix(1,0,0,1,-54.3425,89.6575)">
        <path id="Platine" d="M350,184L557,184L566,192L566,286L574,295L2248,295L2279,326L2279,2084L2248,2117L342,2117L310,2084L310,326L342,295L342,192L350,184Z" style="fill:rgb(47,47,47);stroke:black;stroke-width:4.17px;"/>
        <g id="Spirale">
            <path d="M364.831,2070L364.831,405L400,405" style="fill:none;stroke:black;stroke-width:16.67px;"/>
            <g>
                <path d="M400,405L400,2070L436,2070L436,405" style="fill:none;stroke:black;stroke-width:16.67px;"/>
                <g transform="matrix(1,0,0,1,0,23)">
                    <path d="M400.415,382L364.831,382" style="fill:none;stroke:black;stroke-width:16.67px;"/>
                </g>
            </g>
            <g transform="matrix(1,0,0,1,71.1691,0)">
                <path d="M400,405L400,2070L436,2070L436,405" style="fill:none;stroke:black;stroke-width:16.67px;"/>
                <g transform="matrix(1,0,0,1,0,23)">
                    <path d="M400.415,382L364.831,382" style="fill:none;stroke:black;stroke-width:16.67px;"/>
                </g>
            </g>
            <g transform="matrix(1,0,0,1,142.338,0)">
                <path d="M400,405L400,2070L436,2070L436,405" style="fill:none;stroke:black;stroke-width:16.67px;"/>
                <g transform="matrix(1,0,0,1,0,23)">
                    <path d="M400.415,382L364.831,382" style="fill:none;stroke:black;stroke-width:16.67px;"/>
                </g>
            </g>
            <g transform="matrix(1,0,0,1,213.507,0)">
                <path d="M400,405L400,2070L436,2070L436,405" style="fill:none;stroke:black;stroke-width:16.67px;"/>
                <g transform="matrix(1,0,0,1,0,23)">
                    <path d="M400.415,382L364.831,382" style="fill:none;stroke:black;stroke-width:16.67px;"/>
                </g>
            </g>
            <g transform="matrix(1,0,0,1,284.676,0)">
                <path d="M400,405L400,2070L436,2070L436,405" style="fill:none;stroke:black;stroke-width:16.67px;"/>
                <g transform="matrix(1,0,0,1,0,23)">
                    <path d="M400.415,382L364.831,382" style="fill:none;stroke:black;stroke-width:16.67px;"/>
                </g>
            </g>
            <g transform="matrix(1,0,0,1,355.846,0)">
                <path d="M400,405L400,2070L436,2070L436,405" style="fill:none;stroke:black;stroke-width:16.67px;"/>
                <g transform="matrix(1,0,0,1,0,23)">
                    <path d="M400.415,382L364.831,382" style="fill:none;stroke:black;stroke-width:16.67px;"/>
                </g>
            </g>
            <g transform="matrix(1,0,0,1,427.015,0)">
                <path d="M400,405L400,2070L436,2070L436,405" style="fill:none;stroke:black;stroke-width:16.67px;"/>
                <g transform="matrix(1,0,0,1,0,23)">
                    <path d="M400.415,382L364.831,382" style="fill:none;stroke:black;stroke-width:16.67px;"/>
                </g>
            </g>
            <g transform="matrix(1,0,0,1,498.184,0)">
                <path d="M400,405L400,2070L436,2070L436,405" style="fill:none;stroke:black;stroke-width:16.67px;"/>
                <g transform="matrix(1,0,0,1,0,23)">
                    <path d="M400.415,382L364.831,382" style="fill:none;stroke:black;stroke-width:16.67px;"/>
                </g>
            </g>
            <g transform="matrix(1,0,0,1,569.353,0)">
                <path d="M400,405L400,2070L436,2070L436,405" style="fill:none;stroke:black;stroke-width:16.67px;"/>
                <g transform="matrix(1,0,0,1,0,23)">
                    <path d="M400.415,382L364.831,382" style="fill:none;stroke:black;stroke-width:16.67px;"/>
                </g>
            </g>
            <g transform="matrix(1,0,0,1,640.522,0)">
                <path d="M400,405L400,2070L436,2070L436,405" style="fill:none;stroke:black;stroke-width:16.67px;"/>
                <g transform="matrix(1,0,0,1,0,23)">
                    <path d="M400.415,382L364.831,382" style="fill:none;stroke:black;stroke-width:16.67px;"/>
                </g>
            </g>
            <g transform="matrix(1,0,0,1,711.691,0)">
                <path d="M400,405L400,2070L436,2070L436,405" style="fill:none;stroke:black;stroke-width:16.67px;"/>
                <g transform="matrix(1,0,0,1,0,23)">
                    <path d="M400.415,382L364.831,382" style="fill:none;stroke:black;stroke-width:16.67px;"/>
                </g>
            </g>
            <g transform="matrix(1,0,0,1,782.86,0)">
                <path d="M400,405L400,2070L436,2070L436,405" style="fill:none;stroke:black;stroke-width:16.67px;"/>
                <g transform="matrix(1,0,0,1,0,23)">
                    <path d="M400.415,382L364.831,382" style="fill:none;stroke:black;stroke-width:16.67px;"/>
                </g>
            </g>
            <g transform="matrix(1,0,0,1,854.029,0)">
                <path d="M400,405L400,2070L436,2070L436,405" style="fill:none;stroke:black;stroke-width:16.67px;"/>
                <g transform="matrix(1,0,0,1,0,23)">
                    <path d="M400.415,382L364.831,382" style="fill:none;stroke:black;stroke-width:16.67px;"/>
                </g>
            </g>
            <g transform="matrix(1,0,0,1,925.198,0)">
                <path d="M400,405L400,2070L436,2070L436,405" style="fill:none;stroke:black;stroke-width:16.67px;"/>
                <g transform="matrix(1,0,0,1,0,23)">
                    <path d="M400.415,382L364.831,382" style="fill:none;stroke:black;stroke-width:16.67px;"/>
                </g>
            </g>
            <g transform="matrix(1,0,0,1,996.367,0)">
                <path d="M400,405L400,2070L436,2070L436,405" style="fill:none;stroke:black;stroke-width:16.67px;"/>
                <g transform="matrix(1,0,0,1,0,23)">
                    <path d="M400.415,382L364.831,382" style="fill:none;stroke:black;stroke-width:16.67px;"/>
                </g>
            </g>
            <g transform="matrix(1,0,0,1,1067.54,0)">
                <path d="M400,405L400,2070L436,2070L436,405" style="fill:none;stroke:black;stroke-width:16.67px;"/>
                <g transform="matrix(1,0,0,1,0,23)">
                    <path d="M400.415,382L364.831,382" style="fill:none;stroke:black;stroke-width:16.67px;"/>
                </g>
            </g>
            <g transform="matrix(1,0,0,1,1138.71,0)">
                <path d="M400,405L400,2070L436,2070L436,405" style="fill:none;stroke:black;stroke-width:16.67px;"/>
                <g transform="matrix(1,0,0,1,0,23)">
                    <path d="M400.415,382L364.831,382" style="fill:none;stroke:black;stroke-width:16.67px;"/>
                </g>
            </g>
            <g transform="matrix(1,0,0,1,1209.87,0)">
                <path d="M400,405L400,2070L436,2070L436,405" style="fill:none;stroke:black;stroke-width:16.67px;"/>
                <g transform="matrix(1,0,0,1,0,23)">
                    <path d="M400.415,382L364.831,382" style="fill:none;stroke:black;stroke-width:16.67px;"/>
                </g>
            </g>
            <g transform="matrix(1,0,0,1,1281.04,0)">
                <path d="M400,405L400,2070L436,2070L436,405" style="fill:none;stroke:black;stroke-width:16.67px;"/>
                <g transform="matrix(1,0,0,1,0,23)">
                    <path d="M400.415,382L364.831,382" style="fill:none;stroke:black;stroke-width:16.67px;"/>
                </g>
            </g>
            <g transform="matrix(1,0,0,1,1352.21,0)">
                <path d="M400,405L400,2070L436,2070L436,405" style="fill:none;stroke:black;stroke-width:16.67px;"/>
                <g transform="matrix(1,0,0,1,0,23)">
                    <path d="M400.415,382L364.831,382" style="fill:none;stroke:black;stroke-width:16.67px;"/>
                </g>
            </g>
            <g transform="matrix(1,0,0,1,1423.38,0)">
                <path d="M400,405L400,2070L436,2070L436,405" style="fill:none;stroke:black;stroke-width:16.67px;"/>
                <g transform="matrix(1,0,0,1,0,23)">
                    <path d="M400.415,382L364.831,382" style="fill:none;stroke:black;stroke-width:16.67px;"/>
                </g>
            </g>
            <g transform="matrix(1,0,0,1,1494.55,0)">
                <path d="M400,405L400,2070L436,2070L436,405" style="fill:none;stroke:black;stroke-width:16.67px;"/>
                <g transform="matrix(1,0,0,1,0,23)">
                    <path d="M400.415,382L364.831,382" style="fill:none;stroke:black;stroke-width:16.67px;"/>
                </g>
            </g>
            <g transform="matrix(1,0,0,1,1565.72,0)">
                <path d="M400,405L400,2070L436,2070L436,405" style="fill:none;stroke:black;stroke-width:16.67px;"/>
                <g transform="matrix(1,0,0,1,0,23)">
                    <path d="M400.415,382L364.831,382" style="fill:none;stroke:black;stroke-width:16.67px;"/>
                </g>
            </g>
            <g transform="matrix(1,0,0,1,1636.89,0)">
                <path d="M400,405L400,2070L436,2070L436,405" style="fill:none;stroke:black;stroke-width:16.67px;"/>
                <g transform="matrix(1,0,0,1,0,23)">
                    <path d="M400.415,382L364.831,382" style="fill:none;stroke:black;stroke-width:16.67px;"/>
                </g>
            </g>
            <g transform="matrix(1,0,0,1,1708.06,0)">
                <path d="M400,405L400,2070L436,2070L436,405" style="fill:none;stroke:black;stroke-width:16.67px;"/>
                <g transform="matrix(1,0,0,1,0,23)">
                    <path d="M400.415,382L364.831,382" style="fill:none;stroke:black;stroke-width:16.67px;"/>
                </g>
            </g>
            <g transform="matrix(1,0,0,1,1779.23,0)">
                <path d="M400,405L400,2070L436,2070L436,330.195L419.75,330.195" style="fill:none;stroke:black;stroke-width:16.67px;"/>
                <g transform="matrix(1,0,0,1,0,23)">
                    <path d="M400.415,382L364.831,382" style="fill:none;stroke:black;stroke-width:16.67px;"/>
                </g>
            </g>
            <g transform="matrix(1,0,0,1,11,0)">
                <path d="M320,361L320,2070L353.831,2070" style="fill:none;stroke:black;stroke-width:16.67px;"/>
            </g>
        </g>
        <g id="Anschluss">
            <path d="M357,203L417,203L417,348C417,364.865 391.97,389.752 371,390L341.517,390C323.201,386.418 315.835,375.992 313,361C310.404,347.274 322.625,327.259 354,328L357,326.045L357,203Z" style="stroke:black;stroke-width:8.33px;"/>
            <path d="M489,203L551,203L551,315L563,326L2209,326L2209,387L551,387L489,336L489,203Z" style="stroke:black;stroke-width:8.33px;"/>
            <g transform="matrix(1.01622,0,0,1.01622,-6.76508,-8.5633)">
                <rect x="357.958" y="208.186" width="59.042" height="59.042" style="fill:rgb(255,173,0);"/>
            </g>
            <g transform="matrix(1.0501,0,0,1.01622,113.109,-8.5633)">
                <rect x="357.958" y="208.186" width="59.042" height="59.042" style="fill:rgb(255,173,0);"/>
            </g>
        </g>
    </g>
</svg>
